<svg width="64" height="64" viewBox="0 0 64 64" fill="none" xmlns="http://www.w3.org/2000/svg">
<rect width="64" height="64" rx="20" fill="#15C3D6"/>
<path fill-rule="evenodd" clip-rule="evenodd" d="M32.5 22C31.6716 22 31 22.6716 31 23.5V31H23.5C22.6716 31 22 31.6716 22 32.5C22 33.3284 22.6716 34 23.5 34H31V41.5C31 42.3284 31.6716 43 32.5 43C33.3284 43 34 42.3284 34 41.5V34H41.5C42.3284 34 43 33.3284 43 32.5C43 31.6716 42.3284 31 41.5 31H34V23.5C34 22.6716 33.3284 22 32.5 22Z" fill="white"/>
</svg>
